<?xml version="1.0" encoding="utf-8"?>
    <!-- Generator: Grasshopper 1.0.0, Redback Plugin. SVG Version: 6.00 Build 0) Made by Andrew Butler at Cox Architecture -->
    <!DOCTYPE svg PUBLIC "-//W3C//DTD SVG 1.1//EN" "http://www.w3.org/Graphics/SVG/1.1/DTD/svg11.dtd">
    <svg version="1.1" xmlns="http://www.w3.org/2000/svg" xmlns:xlink="http://www.w3.org/1999/xlink" x="0px" y="0px"
    width="420mm" height="297mm" viewBox="0 0 420 297" xml:space="preserve">
    <style type="text/css">
    *{
stroke: #ff00b4;
stroke-width: 0.2mm;
fill: none;
stroke-dasharray: 1mm 0.5mm;
stroke-linecap: round;
stroke-linejoin: round
}
[layer="Default"] {
stroke-width: 0.5mm;
}
[layer="Layer 01"]{
stroke-width: 0.1mm;
}
[layer="Layer 02"]{
stroke-width: 0.1mm;
stroke-dasharray: 2mm 0.5mm;
}
    </style>
    <path spline_1deg="" d=" M206.55,97.39 L47.98,88.78 L67.65,180.16 L203.69,219.49 L259.00,174.42Z" layer="Default"/>
<path spline_1deg="" d=" M173.10,157.34 L332.92,157.34 L332.92,55.57 L173.10,55.57Z" layer="Default"/>
<path spline_1deg="" d=" M293.16,203.77 L292.90,203.68 L292.63,203.59 L292.36,203.50 L292.10,203.41 L291.83,203.33 L291.56,203.24 L291.29,203.16 L291.03,203.07 L290.76,202.99 L290.49,202.90 L290.22,202.82 L289.95,202.74 L289.68,202.66 L289.41,202.58 L289.14,202.50 L288.87,202.42 L288.60,202.34 L288.33,202.27 L288.06,202.19 L287.79,202.12 L287.52,202.04 L287.25,201.97 L286.98,201.90 L286.70,201.82 L286.43,201.75 L286.16,201.68 L285.89,201.61 L285.62,201.54 L285.34,201.47 L285.07,201.41 L284.80,201.34 L284.52,201.27 L284.25,201.21 L283.98,201.14 L283.70,201.08 L283.43,201.02 L283.15,200.95 L282.88,200.89 L282.61,200.83 L282.33,200.77 L282.06,200.71 L281.78,200.65 L281.51,200.60 L281.23,200.54 L280.95,200.48 L280.68,200.43 L280.40,200.37 L280.13,200.32 L279.85,200.27 L279.57,200.22 L279.30,200.17 L279.02,200.11 L278.74,200.07 L278.47,200.02 L278.19,199.97 L277.91,199.92 L277.64,199.87 L277.36,199.83 L277.08,199.78 L276.80,199.74 L276.53,199.70 L276.25,199.65 L275.97,199.61 L275.69,199.57 L275.41,199.53 L275.14,199.49 L274.86,199.45 L274.58,199.42 L274.30,199.38 L274.02,199.34 L273.74,199.31 L273.46,199.27 L273.18,199.24 L272.90,199.21 L272.63,199.17 L272.35,199.14 L272.07,199.11 L271.79,199.08 L271.51,199.05 L271.23,199.02 L270.95,199.00 L270.67,198.97 L270.39,198.94 L270.11,198.92 L269.83,198.89 L269.55,198.87 L269.27,198.85 L268.99,198.83 L268.71,198.81 L268.43,198.78 L268.15,198.77 L267.87,198.75 L267.58,198.73 L267.30,198.71 L267.02,198.70 L266.74,198.68 L266.46,198.67 L266.18,198.65 L265.90,198.64 L265.62,198.63 L265.34,198.61 L265.06,198.60 L264.78,198.59 L264.50,198.58 L264.21,198.58 L263.93,198.57 L263.65,198.56 L263.37,198.56 L263.09,198.55 L262.81,198.55 L262.53,198.54 L262.25,198.54 L261.97,198.54 L261.68,198.54 L261.40,198.54 L261.12,198.54 L260.84,198.54 L260.56,198.54 L260.28,198.54 L260.00,198.55 L259.72,198.55 L259.44,198.56 L259.15,198.56 L258.87,198.57 L258.59,198.58 L258.31,198.59 L258.03,198.60 L257.75,198.61 L257.47,198.62 L257.19,198.63 L256.91,198.64 L256.63,198.65 L256.34,198.67 L256.06,198.68 L255.78,198.70 L255.50,198.71 L255.22,198.73 L254.94,198.75 L254.66,198.77 L254.38,198.79 L254.10,198.81 L253.82,198.83 L253.54,198.85 L253.26,198.88 L252.98,198.90 L252.70,198.92 L252.42,198.95 L252.14,198.97 L251.86,199.00 L251.58,199.03 L251.30,199.06 L251.02,199.09 L250.74,199.12 L250.46,199.15 L250.18,199.18 L249.90,199.21 L249.62,199.24 L249.34,199.28 L249.06,199.31 L248.79,199.35 L248.51,199.39 L248.23,199.42 L247.95,199.46 L247.67,199.50 L247.39,199.54 L247.11,199.58 L246.84,199.62 L246.56,199.66 L246.28,199.70 L246.00,199.75 L245.73,199.79 L245.45,199.84 L245.17,199.88 L244.89,199.93 L244.62,199.98 L244.34,200.03 L244.06,200.07 L243.79,200.12 L243.51,200.18 L243.23,200.23 L242.96,200.28 L242.68,200.33 L242.40,200.39 L242.13,200.44 L241.85,200.50 L241.58,200.55 L241.30,200.61 L241.03,200.67 L240.75,200.72 L240.48,200.78 L240.20,200.84 L239.93,200.90 L239.65,200.97 L239.38,201.03 L239.10,201.09 L238.83,201.16 L238.56,201.22 L238.28,201.29 L238.01,201.35 L237.74,201.42 L237.46,201.49 L237.19,201.55 L236.92,201.62 L236.65,201.69 L236.38,201.77 L236.10,201.84 L235.83,201.91 L235.56,201.98 L235.29,202.06 L235.02,202.13 L234.75,202.21 L234.48,202.28 L234.21,202.36 L233.94,202.44 L233.67,202.52 L233.40,202.60 L233.13,202.68 L232.86,202.76 L232.59,202.84 L232.32,202.92 L232.05,203.00 L231.78,203.09 L231.51,203.17 L231.25,203.26 L230.98,203.34 L230.71,203.43 L230.44,203.52 L230.18,203.61 L229.91,203.70 L229.65,203.79 L229.38,203.88 L229.11,203.97 L228.85,204.06 L228.58,204.15 L228.32,204.25 L228.05,204.34 L227.79,204.44 L227.52,204.53 L227.26,204.63 L227.00,204.73 L226.73,204.83 L226.47,204.93 L226.21,205.03 L225.94,205.13 L225.68,205.23 L225.42,205.33 L225.16,205.43 L224.90,205.54 L224.64,205.64 L224.37,205.75 L224.11,205.85 L223.85,205.96 L223.59,206.06 L223.33,206.17 L223.08,206.28 L222.82,206.39 L222.56,206.50 L222.30,206.61 L222.04,206.72 L221.78,206.84 L221.53,206.95 L221.27,207.06 L221.01,207.18 L220.76,207.29 L220.50,207.41 L220.24,207.53 L219.99,207.64 L219.73,207.76 L219.48,207.88 L219.22,208.00 L218.97,208.12 L218.72,208.24 L218.46,208.36 L218.21,208.49 L217.96,208.61 L217.71,208.73 L217.45,208.86 L217.20,208.98 L216.95,209.11 L216.70,209.24 L216.45,209.36 L216.20,209.49 L215.95,209.62 L215.70,209.75 L215.45,209.88 L215.20,210.01 L214.95,210.14 L214.71,210.28 L214.46,210.41 L214.21,210.54 L213.96,210.68 L213.72,210.81 L213.47,210.95 L213.23,211.09 L212.98,211.22 L212.74,211.36 L212.49,211.50 L212.25,211.64 L212.00,211.78 L211.76,211.92 L211.52,212.06 L211.27,212.21 L211.03,212.35 L210.79,212.49 L210.55,212.64 L210.31,212.78 L210.07,212.93 L209.83,213.07 L209.59,213.22 L209.35,213.37 L209.11,213.52 L208.87,213.67 L208.63,213.82 L208.40,213.97 L208.16,214.12 L207.92,214.27 L207.69,214.42 L207.45,214.58 L207.22,214.73 L206.98,214.89 L206.75,215.04 L206.51,215.20 L206.28,215.35 L206.05,215.51 L205.81,215.67 L205.58,215.83 L205.35,215.99 L205.12,216.15 L204.89,216.31 L204.66,216.47 L204.43,216.63 L204.20,216.79 L203.97,216.95 L203.74,217.12 L203.51,217.28 L203.28,217.45 L203.06,217.61 L202.83,217.78 L202.60,217.95 L202.38,218.11 L202.15,218.28 L201.93,218.45 L201.70,218.62 L201.48,218.79 L201.26,218.96 L201.03,219.13 L200.81,219.31 L200.59,219.48 L200.37,219.65 L200.15,219.83 L199.93,220.00 L199.71,220.18 L199.49,220.35 L199.27,220.53 L199.05,220.71 L198.83,220.88 L198.62,221.06 L198.40,221.24 L198.18,221.42 L197.97,221.60 L197.75,221.78 L197.54,221.96 L197.32,222.14 L197.11,222.33 L196.90,222.51 L196.68,222.69 L196.47,222.88 L196.26,223.06 L196.05,223.25 L195.84,223.44 L195.63,223.62 L195.42,223.81 L195.21,224.00 L195.00,224.19 L194.79,224.38 L194.59,224.57 L194.38,224.76 L194.17,224.95 L193.97,225.14 L193.76,225.33 L193.56,225.52 L193.35,225.72 L193.15,225.91 L192.95,226.11 L192.74,226.30 L192.54,226.50 L192.34,226.69 L192.14,226.89 L191.94,227.09 L191.74,227.28 L191.54,227.48 L191.34,227.68 L191.14,227.88 L190.95,228.08 L190.75,228.28 L190.55,228.48 L190.36,228.69 L190.16,228.89 L189.97,229.09 L189.77,229.29 L189.58,229.50 L189.39,229.70 L189.20,229.91 L189.00,230.11 L188.81,230.32 L188.62,230.53 L188.43,230.73 L188.24,230.94 L188.05,231.15 L187.87,231.36 L187.68,231.57 L187.49,231.78 L187.31,231.99 L187.12,232.20 L186.94,232.41 L186.75,232.63 L186.57,232.84 L186.38,233.05 L186.20,233.26 L186.02,233.48 L185.84,233.69 L185.66,233.91 L185.48,234.12 L185.30,234.34 L185.12,234.56 L184.94,234.78 L184.76,234.99 L184.58,235.21 L184.41,235.43 L184.23,235.65 L184.06,235.87 L183.88,236.09 L183.71,236.31 L183.53,236.53 L183.36,236.75 L183.19,236.98 L183.02,237.20 L182.85,237.42 L182.68,237.65 L182.51,237.87 L182.34,238.09 L182.17,238.32 L182.00,238.55 L181.84,238.77 L181.67,239.00 L181.50,239.23 L181.34,239.45 L181.17,239.68 L181.01,239.91 L180.85,240.14 L180.68,240.37 L180.52,240.60 L180.36,240.83 L180.20,241.06 L180.04,241.29 L179.88,241.52 L179.72,241.75 L179.57,241.99 L179.41,242.22 L179.25,242.45 L179.10,242.69 L178.94,242.92 L178.79,243.16 L178.63,243.39 L178.48,243.63 L178.33,243.86 L178.17,244.10 L178.02,244.34 L177.87,244.57 L177.72,244.81 L177.57,245.05 L177.42,245.29 L177.28,245.53 L177.13,245.77 L176.98,246.01 L176.84,246.25 L176.69,246.49 L176.55,246.73 L176.40,246.97 L176.26,247.21 L176.12,247.46 L175.98,247.70 L175.84,247.94 L175.70,248.19 L175.56,248.43 L175.42,248.68 L175.28,248.92 L175.14,249.17 L175.00,249.41 L174.87,249.66 L174.73,249.90 L174.60,250.15 L174.46,250.40 L174.33,250.65 L174.20,250.89 L174.07,251.14 L173.94,251.39 L173.81,251.64 L173.68,251.89 L173.55,252.14 L173.42,252.39 L173.29,252.64 L173.16,252.89 L173.04,253.14 L172.91,253.39 L172.79,253.64 L172.66,253.90 L172.54,254.15 L172.42,254.40 L172.30,254.66 L172.17,254.91 L172.05,255.16 L171.93,255.42 L171.81,255.67 L171.70,255.93 L171.58,256.18 L171.46,256.44 L171.35,256.70 L171.23,256.95 L171.12,257.21 L171.00,257.47 L170.89,257.72 L170.78,257.98 L170.66,258.24 L170.55,258.50 L170.44,258.76 L170.33,259.01 L170.23,259.27 L170.12,259.53 L170.01,259.79 L169.90,260.05 L169.80,260.31 L169.69,260.57 L169.59,260.84 L169.48,261.10 L169.38,261.36 L169.28,261.62 L169.18,261.88 L169.08,262.15 L168.98,262.41 L168.88,262.67 L168.78,262.93 L168.68,263.20 L168.59,263.46 L168.49,263.73 L168.39,263.99 L168.30,264.26 L168.21,264.52 L168.11,264.79 L168.02,265.05 L167.93,265.32 L167.84,265.58 L167.75,265.85 L167.66,266.12 L167.57,266.38 L167.48,266.65 L167.40,266.92 L167.31,267.19 L167.22,267.45 L167.14,267.72 L167.05,267.99 L166.97,268.26 L166.89,268.53 L166.81,268.80 L166.73,269.07 L166.65,269.33 L166.57,269.60 L166.49,269.87 L166.41,270.14 L166.33,270.41 L166.26,270.69 L166.18,270.96 L166.11,271.23 L166.03,271.50 L165.96,271.77 L165.89,272.04 L165.82,272.31 L165.74,272.59 L165.67,272.86 L165.60,273.13 L165.54,273.40 L165.47,273.68 L165.40,273.95 L165.34,274.22 L165.27,274.50 L165.20,274.77 L165.14,275.04 L165.08,275.32 L165.02,275.59 L164.95,275.87 L164.89,276.14 L164.83,276.41 L164.77,276.69 L164.72,276.96 L164.66,277.24 L164.60,277.51 L164.54,277.79 L164.49,278.07 L164.43,278.34 L164.38,278.62 L164.33,278.89 L164.28,279.17 L164.22,279.45 L164.17,279.72 L164.12,280.00 L164.07,280.28 L164.03,280.55 L163.98,280.83 L163.93,281.11 L163.89,281.39 L163.84,281.66 L163.80,281.94 L163.75,282.22 L163.71,282.50 L163.67,282.77 L163.63,283.05 L163.59,283.33 L163.55,283.61 L163.51,283.89 L163.47,284.17 L163.43,284.44 L163.40,284.72 L163.36,285.00 L163.33,285.28 L163.29,285.56 L163.26,285.84 L163.23,286.12 L163.20,286.40 L163.16,286.68 L163.13,286.96 L163.11,287.24 L163.08,287.52 L163.05,287.80 L163.02,288.08 L163.00,288.36 L162.97,288.64 L162.95,288.92 L162.92,289.20 L162.90,289.48 L162.88,289.76 L162.86,290.04 L162.84,290.32 L162.82,290.60 L162.80,290.88 L162.78,291.16 L162.76,291.44 L162.75,291.72 L162.73,292.00 L162.72,292.28 L162.70,292.56 L162.69,292.84 L162.68,293.12 L162.66,293.41 L162.65,293.69 L162.64,293.97 L162.63,294.25 L162.62,294.53 L162.62,294.81 L162.61,295.09 L162.60,295.37 L162.60,295.65 L162.59,295.93 L162.59,296.22 L162.59,296.50 L162.59,296.78 L162.58,297.06 L162.58,297.34 L162.58,297.62 L162.58,297.90 L162.59,298.18 L162.59,298.47 L162.59,298.75 L162.60,299.03 L162.60,299.31 L162.61,299.59 L162.61,299.87 L162.62,300.15 L162.63,300.43 L162.64,300.71 L162.65,300.99 L162.66,301.28 L162.67,301.56 L162.68,301.84 L162.70,302.12 L162.71,302.40 L162.73,302.68 L162.74,302.96 L162.76,303.24 L162.77,303.52 L162.79,303.80 L162.81,304.08 L162.83,304.36 L162.85,304.64 L162.87,304.92 L162.89,305.20 L162.92,305.49 L162.94,305.77 L162.96,306.05 L162.99,306.33 L163.01,306.61 L163.04,306.89 L163.07,307.17 L163.10,307.44 L163.13,307.72 L163.16,308.00 L163.19,308.28 L163.22,308.56 L163.25,308.84 L163.28,309.12 L163.32,309.40 L163.35,309.68 L163.39,309.96 L163.42,310.24 L163.46,310.52 L163.50,310.79 L163.54,311.07 L163.58,311.35 L163.62,311.63 L163.66,311.91 L163.70,312.19 L163.74,312.46 L163.78,312.74 L163.83,313.02 L163.87,313.30 L163.92,313.57 L163.96,313.85 L164.01,314.13 L164.06,314.41 L164.11,314.68 L164.16,314.96 L164.21,315.24 L164.26,315.51 L164.31,315.79 L164.36,316.07 L164.42,316.34 L164.47,316.62 L164.53,316.89 L164.58,317.17 L164.64,317.44 L164.70,317.72 L164.76,317.99 L164.81,318.27 L164.87,318.54 L164.94,318.82 L165.00,319.09 L165.06,319.37 L165.12,319.64 L165.19,319.91 L165.25,320.19 L165.32,320.46 L165.38,320.73 L165.45,321.01 L165.52,321.28 L165.58,321.55 L165.65,321.83 L165.72,322.10 L165.79,322.37 L165.86,322.64 L165.94,322.91 L166.01,323.19 L166.08,323.46 L166.16,323.73 L166.23,324.00 L166.31,324.27 L166.39,324.54 L166.46,324.81 L166.54,325.08 L166.62,325.35 L166.70,325.62 L166.78,325.89 L166.86,326.16 L166.95,326.43 L167.03,326.70 L167.11,326.96 L167.20,327.23 L167.28,327.50 L167.37,327.77 L167.46,328.04 L167.54,328.30 L167.63,328.57 L167.72,328.84 L167.81,329.10 L167.90,329.37 L167.99,329.63 L168.08,329.90 L168.18,330.17 L168.27,330.43 L168.37,330.70 L168.46,330.96 L168.56,331.22 L168.65,331.49 L168.75,331.75 L168.85,332.02 L168.95,332.28 L169.05,332.54 L169.15,332.80 L169.25,333.07 L169.35,333.33 L169.45,333.59 L169.56,333.85 L169.66,334.11 L169.77,334.37 L169.87,334.63 L169.98,334.89 L170.08,335.15 L170.19,335.41 L170.30,335.67 L170.41,335.93 L170.52,336.19 L170.63,336.45 L170.74,336.71 L170.85,336.97 L170.97,337.22 L171.08,337.48 L171.20,337.74 L171.31,337.99 L171.43,338.25 L171.54,338.51 L171.66,338.76 L171.78,339.02 L171.90,339.27 L172.02,339.53 L172.14,339.78 L172.26,340.03 L172.38,340.29 L172.50,340.54 L172.63,340.79 L172.75,341.05 L172.87,341.30 L173.00,341.55 L173.12,341.80 L173.25,342.05 L173.38,342.30 L173.51,342.55 L173.64,342.80 L173.77,343.05 L173.90,343.30 L174.03,343.55 L174.16,343.80 L174.29,344.05 L174.42,344.29 L174.56,344.54 L174.69,344.79 L174.83,345.03 L174.96,345.28 L175.10,345.53 L175.24,345.77 L175.37,346.02 L175.51,346.26 L175.65,346.51 L175.79,346.75 L175.93,346.99 L176.08,347.24 L176.22,347.48 L176.36,347.72 L176.50,347.96 L176.65,348.20 L176.79,348.44 L176.94,348.69 L177.08,348.93 L177.23,349.17 L177.38,349.40 L177.53,349.64 L177.68,349.88 L177.83,350.12 L177.98,350.36 L178.13,350.59 L178.28,350.83 L178.43,351.07 L178.58,351.30 L178.74,351.54 L178.89,351.77 L179.05,352.01 L179.20,352.24 L179.36,352.48 L179.52,352.71 L179.67,352.94 L179.83,353.17 L179.99,353.41 L180.15,353.64 L180.31,353.87 L180.47,354.10 L180.63,354.33 L180.80,354.56 L180.96,354.79 L181.12,355.02 L181.29,355.24 L181.45,355.47 L181.62,355.70 L181.78,355.93 L181.95,356.15 L182.12,356.38 L182.29,356.60 L182.46,356.83 L182.62,357.05 L182.79,357.28 L182.97,357.50 L183.14,357.72 L183.31,357.95 L183.48,358.17 L183.65,358.39 L183.83,358.61 L184.00,358.83 L184.18,359.05 L184.35,359.27 L184.53,359.49 L184.71,359.71 L184.88,359.93 L185.06,360.14 L185.24,360.36 L185.42,360.58 L185.60,360.79 L185.78,361.01 L185.96,361.22 L186.14,361.44 L186.33,361.65 L186.51,361.86 L186.69,362.08 L186.88,362.29 L187.06,362.50 L187.25,362.71 L187.44,362.92 L187.62,363.13 L187.81,363.34 L188.00,363.55 L188.19,363.76 L188.37,363.97 L188.56,364.18 L188.75,364.38 L188.95,364.59 L189.14,364.80 L189.33,365.00 L189.52,365.21 L189.71,365.41 L189.91,365.61 L190.10,365.82 L190.30,366.02 L190.49,366.22 L190.69,366.42 L190.89,366.62 L191.08,366.82 L191.28,367.02 L191.48,367.22 L191.68,367.42 L191.88,367.62 L192.08,367.82 L192.28,368.02 L192.48,368.21 L192.68,368.41 L192.88,368.60 L193.09,368.80 L193.29,368.99 L193.49,369.18 L193.70,369.38 L193.90,369.57 L194.11,369.76 L194.32,369.95 L194.52,370.14 L194.73,370.33 L194.94,370.52 L195.15,370.71 L195.35,370.90 L195.56,371.09 L195.77,371.28 L195.98,371.46 L196.19,371.65 L196.41,371.83 L196.62,372.02 L196.83,372.20 L197.04,372.38 L197.26,372.57 L197.47,372.75 L197.69,372.93 L197.90,373.11 L198.12,373.29 L198.33,373.47 L198.55,373.65 L198.77,373.83 L198.98,374.01 L199.20,374.19 L199.42,374.36 L199.64,374.54 L199.86,374.71 L200.08,374.89 L200.30,375.06 L200.52,375.24 L200.74,375.41 L200.97,375.58 L201.19,375.75 L201.41,375.92 L201.64,376.09 L201.86,376.26 L202.08,376.43 L202.31,376.60 L202.54,376.77 L202.76,376.94 L202.99,377.10 L203.21,377.27 L203.44,377.43 L203.67,377.60 L203.90,377.76 L204.13,377.93 L204.36,378.09 L204.59,378.25 L204.82,378.41 L205.05,378.57 L205.28,378.73 L205.51,378.89 L205.74,379.05 L205.98,379.21 L206.21,379.37 L206.44,379.52 L206.68,379.68 L206.91,379.84 L207.14,379.99 L207.38,380.14 L207.62,380.30 L207.85,380.45 L208.09,380.60 L208.32,380.75 L208.56,380.90 L208.80,381.05 L209.04,381.20 L209.28,381.35 L209.52,381.50 L209.75,381.65 L209.99,381.79 L210.24,381.94 L210.48,382.09 L210.72,382.23 L210.96,382.37 L211.20,382.52 L211.44,382.66 L211.69,382.80 L211.93,382.94 L212.17,383.08 L212.42,383.22 L212.66,383.36 L212.91,383.50 L213.15,383.64 L213.40,383.78 L213.64,383.91 L213.89,384.05 L214.13,384.18 L214.38,384.32 L214.63,384.45 L214.88,384.58 L215.13,384.71 L215.37,384.85 L215.62,384.98 L215.87,385.11 L216.12,385.24 L216.37,385.36 L216.62,385.49 L216.87,385.62 L217.12,385.75 L217.38,385.87 L217.63,386.00 L217.88,386.12 L218.13,386.24 L218.39,386.37 L218.64,386.49 L218.89,386.61 L219.15,386.73 L219.40,386.85 L219.66,386.97 L219.91,387.09 L220.17,387.21 L220.42,387.32 L220.68,387.44 L220.93,387.55 L221.19,387.67 L221.45,387.78 L221.70,387.90 L221.96,388.01 L222.22,388.12 L222.48,388.23 L222.74,388.34 L223.00,388.45 L223.26,388.56 L223.51,388.67 L223.77,388.78 L224.03,388.88 L224.29,388.99 L224.56,389.10 L224.82,389.20 L225.08,389.30 L225.34,389.41 L225.60,389.51 L225.86,389.61 L226.13,389.71 L226.39,389.81 L226.65,389.91 L226.92,390.01 L227.18,390.11 L227.44,390.20 L227.71,390.30 L227.97,390.40 L228.24,390.49 L228.50,390.58 L228.77,390.68 L229.03,390.77 L229.30,390.86 L229.56,390.95 L229.83,391.04 L230.10,391.13 L230.36,391.22 L230.63,391.31 L230.90,391.40 L231.16,391.48 L231.43,391.57 L231.70,391.65 L231.97,391.74 L232.24,391.82 L232.51,391.90 L232.78,391.99 L233.04,392.07 L233.31,392.15 L233.58,392.23 L233.85,392.31 L234.12,392.38 L234.39,392.46 L234.66,392.54 L234.93,392.61 L235.21,392.69 L235.48,392.76 L235.75,392.84 L236.02,392.91 L236.29,392.98 L236.56,393.05 L236.84,393.12 L237.11,393.19 L237.38,393.26 L237.65,393.33 L237.93,393.40 L238.20,393.46 L238.47,393.53 L238.75,393.59 L239.02,393.66 L239.29,393.72 L239.57,393.78 L239.84,393.84 L240.12,393.91 L240.39,393.97 L240.67,394.03 L240.94,394.08 L241.22,394.14 L241.49,394.20 L241.77,394.26 L242.04,394.31 L242.32,394.37 L242.60,394.42 L242.87,394.47 L243.15,394.53 L243.42,394.58 L243.70,394.63 L243.98,394.68 L244.25,394.73 L244.53,394.78 L244.81,394.82 L245.09,394.87 L245.36,394.92 L245.64,394.96 L245.92,395.01 L246.20,395.05 L246.47,395.09 L246.75,395.13 L247.03,395.18 L247.31,395.22 L247.59,395.26 L247.86,395.30 L248.14,395.33 L248.42,395.37 L248.70,395.41 L248.98,395.44 L249.26,395.48 L249.54,395.51 L249.82,395.55 L250.10,395.58 L250.37,395.61 L250.65,395.64 L250.93,395.67 L251.21,395.70 L251.49,395.73 L251.77,395.76 L252.05,395.78 L252.33,395.81 L252.61,395.84 L252.89,395.86 L253.17,395.89 L253.45,395.91 L253.73,395.93 L254.01,395.95 L254.29,395.97 L254.57,395.99 L254.85,396.01 L255.14,396.03 L255.42,396.05 L255.70,396.06 L255.98,396.08 L256.26,396.10 L256.54,396.11 L256.82,396.12 L257.10,396.14 L257.38,396.15 L257.66,396.16 L257.94,396.17 L258.22,396.18 L258.51,396.19 L258.79,396.20 L259.07,396.20 L259.35,396.21 L259.63,396.21 L259.91,396.22 L260.19,396.22 L260.47,396.23 L260.75,396.23 L261.04,396.23 L261.32,396.23 L261.60,396.23 L261.88,396.23 L262.16,396.23 L262.44,396.23 L262.72,396.22 L263.00,396.22 L263.28,396.21 L263.57,396.21 L263.85,396.20 L264.13,396.19 L264.41,396.19 L264.69,396.18 L264.97,396.17 L265.25,396.16 L265.53,396.15 L265.81,396.13 L266.09,396.12 L266.38,396.11 L266.66,396.09 L266.94,396.08 L267.22,396.06 L267.50,396.04 L267.78,396.03 L268.06,396.01 L268.34,395.99 L268.62,395.97 L268.90,395.95 L269.18,395.93 L269.46,395.90 L269.74,395.88 L270.02,395.86 L270.30,395.83 L270.58,395.81 L270.86,395.78 L271.14,395.75 L271.42,395.72 L271.70,395.70 L271.98,395.67 L272.26,395.64 L272.54,395.60 L272.82,395.57 L273.10,395.54 L273.38,395.51 L273.66,395.47 L273.94,395.44 L274.21,395.40 L274.49,395.36 L274.77,395.33 L275.05,395.29 L275.33,395.25 L275.61,395.21 L275.88,395.17 L276.16,395.13 L276.44,395.08 L276.72,395.04 L277.00,395.00 L277.27,394.95 L277.55,394.91 L277.83,394.86 L278.11,394.81 L278.38,394.77 L278.66,394.72 L278.94,394.67 L279.21,394.62 L279.49,394.57 L279.77,394.52 L280.04,394.46 L280.32,394.41 L280.59,394.36 L280.87,394.30 L281.15,394.24 L281.42,394.19 L281.70,394.13 L281.97,394.07 L282.25,394.01 L282.52,393.95 L282.80,393.89 L283.07,393.83 L283.34,393.77 L283.62,393.71 L283.89,393.64 L284.17,393.58 L284.44,393.52 L284.71,393.45 L284.99,393.38 L285.26,393.32 L285.53,393.25 L285.80,393.18 L286.08,393.11 L286.35,393.04 L286.62,392.97 L286.89,392.89 L287.16,392.82 L287.44,392.75 L287.71,392.67 L287.98,392.60 L288.25,392.52 L288.52,392.45 L288.79,392.37 L289.06,392.29 L289.33,392.21 L289.60,392.13 L289.87,392.05 L290.14,391.97 L290.41,391.89 L290.67,391.81 L290.94,391.72 L291.21,391.64 L291.48,391.55 L291.75,391.47 L292.01,391.38 L292.28,391.29 L292.55,391.20 L292.82,391.12 L293.08,391.03 L293.35,390.94 L293.61,390.84 L293.88,390.75 L294.15,390.66 L294.41,390.57 L294.68,390.47 L294.94,390.38 L295.20,390.28 L295.47,390.19 L295.73,390.09 L296.00,389.99 L296.26,389.89 L296.52,389.79 L296.78,389.69 L297.05,389.59 L297.31,389.49 L297.57,389.39 L297.83,389.28 L298.09,389.18 L298.36,389.07 L298.62,388.97 L298.88,388.86 L299.14,388.76 L299.40,388.65 L299.66,388.54 L299.91,388.43 L300.17,388.32 L300.43,388.21 L300.69,388.10 L300.95,387.99 L301.21,387.87 L301.46,387.76 L301.72,387.65 L301.98,387.53 L302.23,387.42 L302.49,387.30 L302.74,387.18 L303.00,387.07 L303.25,386.95 L303.51,386.83 L303.76,386.71 L304.02,386.59 L304.27,386.46 L304.52,386.34 L304.78,386.22 L305.03,386.10 L305.28,385.97 L305.53,385.85 L305.78,385.72 L306.04,385.59 L306.29,385.47 L306.54,385.34 L306.79,385.21 L307.04,385.08 L307.29,384.95 L307.53,384.82 L307.78,384.69 L308.03,384.56 L308.28,384.42 L308.53,384.29 L308.77,384.16 L309.02,384.02 L309.27,383.89 L309.51,383.75 L309.76,383.61 L310.00,383.47 L310.25,383.34 L310.49,383.20 L310.74,383.06 L310.98,382.92 L311.22,382.77 L311.46,382.63 L311.71,382.49 L311.95,382.35 L312.19,382.20 L312.43,382.06 L312.67,381.91 L312.91,381.77 L313.15,381.62 L313.39,381.47 L313.63,381.32 L313.87,381.17 L314.11,381.03 L314.34,380.88 L314.58,380.72 L314.82,380.57 L315.05,380.42 L315.29,380.27 L315.53,380.11 L315.76,379.96 L316.00,379.81 L316.23,379.65 L316.46,379.49 L316.70,379.34 L316.93,379.18 L317.16,379.02 L317.39,378.86 L317.63,378.70 L317.86,378.54 L318.09,378.38 L318.32,378.22 L318.55,378.06 L318.78,377.90 L319.01,377.73 L319.23,377.57 L319.46,377.40 L319.69,377.24 L319.92,377.07 L320.14,376.90 L320.37,376.74 L320.59,376.57 L320.82,376.40 L321.04,376.23 L321.27,376.06 L321.49,375.89 L321.71,375.72 L321.94,375.55 L322.16,375.38 L322.38,375.20 L322.60,375.03 L322.82,374.85 L323.04,374.68 L323.26,374.50 L323.48,374.33 L323.70,374.15 L323.92,373.97 L324.14,373.80 L324.35,373.62 L324.57,373.44 L324.78,373.26 L325.00,373.08 L325.22,372.90 L325.43,372.71 L325.64,372.53 L325.86,372.35 L326.07,372.17 L326.28,371.98 L326.49,371.80 L326.71,371.61 L326.92,371.43 L327.13,371.24 L327.34,371.05 L327.55,370.86 L327.76,370.68 L327.96,370.49 L328.17,370.30 L328.38,370.11 L328.58,369.92 L328.79,369.73 L329.00,369.53 L329.20,369.34 L329.41,369.15 L329.61,368.95 L329.81,368.76 L330.02,368.56 L330.22,368.37 L330.42,368.17 L330.62,367.98 L330.82,367.78 L331.02,367.58 L331.22,367.38 L331.42,367.19 L331.62,366.99 L331.82,366.79 L332.01,366.59 L332.21,366.38 L332.40,366.18 L332.60,365.98 L332.79,365.78 L332.99,365.57 L333.18,365.37 L333.38,365.17 L333.57,364.96 L333.76,364.76 L333.95,364.55 L334.14,364.34 L334.33,364.14 L334.52,363.93 L334.71,363.72 L334.90,363.51 L335.09,363.30 L335.27,363.09 L335.46,362.88 L335.65,362.67 L335.83,362.46 L336.02,362.25 L336.20,362.04 L336.39,361.82 L336.57,361.61 L336.75,361.40 L336.93,361.18 L337.11,360.97 L337.29,360.75 L337.47,360.53 L337.65,360.32 L337.83,360.10 L338.01,359.88 L338.19,359.67 L338.36,359.45 L338.54,359.23 L338.72,359.01 L338.89,358.79 L339.07,358.57 L339.24,358.35 L339.41,358.13 L339.58,357.90 L339.76,357.68 L339.93,357.46 L340.10,357.23 L340.27,357.01 L340.44,356.79 L340.61,356.56 L340.77,356.34 L340.94,356.11 L341.11,355.88 L341.27,355.66 L341.44,355.43 L341.60,355.20 L341.77,354.97 L341.93,354.74 L342.09,354.51 L342.26,354.28 L342.42,354.05 L342.58,353.82 L342.74,353.59 L342.90,353.36 L343.06,353.13 L343.22,352.90 L343.37,352.66 L343.53,352.43 L343.69,352.20 L343.84,351.96 L344.00,351.73 L344.15,351.49 L344.31,351.26 L344.46,351.02 L344.61,350.79 L344.76,350.55 L344.91,350.31 L345.06,350.07 L345.21,349.84 L345.36,349.60 L345.51,349.36 L345.66,349.12 L345.80,348.88 L345.95,348.64 L346.10,348.40 L346.24,348.16 L346.38,347.92 L346.53,347.67 L346.67,347.43 L346.81,347.19 L346.95,346.95 L347.09,346.70 L347.23,346.46 L347.37,346.21 L347.51,345.97 L347.65,345.72 L347.79,345.48 L347.92,345.23 L348.06,344.99 L348.19,344.74 L348.33,344.49 L348.46,344.25 L348.60,344.00 L348.73,343.75 L348.86,343.50 L348.99,343.25 L349.12,343.00 L349.25,342.75 L349.38,342.50 L349.51,342.25 L349.63,342.00 L349.76,341.75 L349.89,341.50 L350.01,341.25 L350.14,341.00 L350.26,340.74 L350.38,340.49 L350.50,340.24 L350.63,339.98 L350.75,339.73 L350.87,339.48 L350.99,339.22 L351.10,338.97 L351.22,338.71 L351.34,338.46 L351.46,338.20 L351.57,337.94 L351.69,337.69 L351.80,337.43 L351.91,337.17 L352.03,336.92 L352.14,336.66 L352.25,336.40 L352.36,336.14 L352.47,335.88 L352.58,335.62 L352.69,335.36 L352.80,335.10 L352.90,334.84 L353.01,334.58 L353.12,334.32 L353.22,334.06 L353.32,333.80 L353.43,333.54 L353.53,333.28 L353.63,333.02 L353.73,332.75 L353.83,332.49 L353.93,332.23 L354.03,331.96 L354.13,331.70 L354.23,331.44 L354.32,331.17 L354.42,330.91 L354.51,330.64 L354.61,330.38 L354.70,330.11 L354.79,329.85 L354.89,329.58 L354.98,329.32 L355.07,329.05 L355.16,328.78 L355.25,328.52 L355.33,328.25 L355.42,327.98 L355.51,327.72 L355.59,327.45 L355.68,327.18 L355.76,326.91 L355.85,326.64 L355.93,326.38 L356.01,326.11 L356.09,325.84 L356.17,325.57 L356.25,325.30 L356.33,325.03 L356.41,324.76 L356.49,324.49 L356.57,324.22 L356.64,323.95 L356.72,323.68 L356.79,323.40 L356.86,323.13 L356.94,322.86 L357.01,322.59 L357.08,322.32 L357.15,322.05 L357.22,321.77 L357.29,321.50 L357.36,321.23 L357.43,320.96 L357.49,320.68 L357.56,320.41 L357.62,320.14 L357.69,319.86 L357.75,319.59 L357.81,319.31 L357.88,319.04 L357.94,318.77 L358.00,318.49 L358.06,318.22 L358.12,317.94 L358.17,317.67 L358.23,317.39 L358.29,317.12 L358.34,316.84 L358.40,316.56 L358.45,316.29 L358.51,316.01 L358.56,315.74 L358.61,315.46 L358.66,315.18 L358.71,314.91 L358.76,314.63 L358.81,314.35 L358.86,314.08 L358.90,313.80 L358.95,313.52 L359.00,313.24 L359.04,312.97 L359.09,312.69 L359.13,312.41 L359.17,312.13 L359.21,311.85 L359.25,311.58 L359.29,311.30 L359.33,311.02 L359.37,310.74 L359.41,310.46 L359.44,310.18 L359.48,309.90 L359.52,309.63 L359.55,309.35 L359.58,309.07 L359.62,308.79 L359.65,308.51 L359.68,308.23 L359.71,307.95 L359.74,307.67 L359.77,307.39 L359.80,307.11 L359.82,306.83 L359.85,306.55 L359.88,306.27 L359.90,305.99 L359.93,305.71 L359.95,305.43 L359.97,305.15 L359.99,304.87 L360.01,304.59 L360.03,304.31 L360.05,304.03 L360.07,303.75 L360.09,303.47 L360.11,303.19 L360.12,302.91 L360.14,302.63 L360.15,302.35 L360.17,302.06 L360.18,301.78 L360.19,301.50 L360.20,301.22 L360.21,300.94 L360.22,300.66 L360.23,300.38 L360.24,300.10 L360.25,299.82 L360.25,299.54 L360.26,299.25 L360.26,298.97 L360.27,298.69 L360.27,298.41 L360.27,298.13 L360.28,297.85 L360.28,297.57 L360.28,297.29 L360.28,297.01 L360.27,296.72 L360.27,296.44 L360.27,296.16 L360.27,295.88 L360.26,295.60 L360.26,295.32 L360.25,295.04 L360.24,294.76 L360.23,294.48 L360.23,294.19 L360.22,293.91 L360.21,293.63 L360.19,293.35 L360.18,293.07 L360.17,292.79 L360.16,292.51 L360.14,292.23 L360.13,291.95 L360.11,291.67 L360.09,291.39 L360.08,291.11 L360.06,290.82 L360.04,290.54 L360.02,290.26 L360.00,289.98 L359.98,289.70 L359.96,289.42 L359.93,289.14 L359.91,288.86 L359.88,288.58 L359.86,288.30 L359.83,288.02 L359.81,287.74 L359.78,287.46 L359.75,287.18 L359.72,286.90 L359.69,286.62 L359.66,286.34 L359.63,286.07 L359.59,285.79 L359.56,285.51 L359.53,285.23 L359.49,284.95 L359.46,284.67 L359.42,284.39 L359.38,284.11 L359.34,283.83 L359.30,283.56 L359.27,283.28 L359.22,283.00 L359.18,282.72 L359.14,282.44 L359.10,282.16 L359.05,281.89 L359.01,281.61 L358.97,281.33 L358.92,281.05 L358.87,280.78 L358.82,280.50 L358.78,280.22 L358.73,279.95 L358.68,279.67 L358.63,279.39 L358.57,279.12 L358.52,278.84 L358.47,278.56 L358.42,278.29 L358.36,278.01 L358.30,277.74 L358.25,277.46 L358.19,277.19 L358.13,276.91 L358.08,276.64 L358.02,276.36 L357.96,276.09 L357.89,275.81 L357.83,275.54 L357.77,275.26 L357.71,274.99 L357.64,274.72 L357.58,274.44 L357.51,274.17 L357.45,273.90 L357.38,273.62 L357.31,273.35 L357.24,273.08 L357.17,272.81 L357.10,272.53 L357.03,272.26 L356.96,271.99 L356.89,271.72 L356.81,271.45 L356.74,271.18 L356.66,270.90 L356.59,270.63 L356.51,270.36 L356.43,270.09 L356.36,269.82 L356.28,269.55 L356.20,269.28 L356.12,269.01 L356.04,268.74 L355.96,268.48 L355.87,268.21 L355.79,267.94 L355.71,267.67 L355.62,267.40 L355.53,267.13 L355.45,266.87 L355.36,266.60 L355.27,266.33 L355.18,266.07 L355.09,265.80 L355.00,265.53 L354.91,265.27 L354.82,265.00 L354.73,264.73 L354.64,264.47 L354.54,264.20 L354.45,263.94 L354.35,263.68 L354.26,263.41 L354.16,263.15 L354.06,262.88 L353.96,262.62 L353.86,262.36 L353.76,262.09 L353.66,261.83 L353.56,261.57 L353.46,261.31 L353.36,261.05 L353.25,260.79 L353.15,260.52 L353.04,260.26 L352.94,260.00 L352.83,259.74 L352.72,259.48 L352.61,259.22 L352.51,258.96 L352.40,258.71 L352.29,258.45 L352.17,258.19 L352.06,257.93 L351.95,257.67 L351.84,257.42 L351.72,257.16 L351.61,256.90 L351.49,256.65 L351.38,256.39 L351.26,256.13 L351.14,255.88 L351.02,255.62 L350.90,255.37 L350.78,255.11 L350.66,254.86 L350.54,254.61 L350.42,254.35 L350.30,254.10 L350.17,253.85 L350.05,253.60 L349.92,253.34 L349.80,253.09 L349.67,252.84 L349.55,252.59 L349.42,252.34 L349.29,252.09 L349.16,251.84 L349.03,251.59 L348.90,251.34 L348.77,251.09 L348.64,250.85 L348.50,250.60 L348.37,250.35 L348.24,250.10 L348.10,249.86 L347.97,249.61 L347.83,249.36 L347.69,249.12 L347.55,248.87 L347.42,248.63 L347.28,248.38 L347.14,248.14 L347.00,247.90 L346.86,247.65 L346.71,247.41 L346.57,247.17 L346.43,246.93 L346.28,246.68 L346.14,246.44 L345.99,246.20 L345.85,245.96 L345.70,245.72 L345.56,245.48 L345.41,245.24 L345.26,245.01 L345.11,244.77 L344.96,244.53 L344.81,244.29 L344.66,244.05 L344.51,243.82 L344.35,243.58 L344.20,243.35 L344.04,243.11 L343.89,242.88 L343.73,242.64 L343.58,242.41 L343.42,242.17 L343.26,241.94 L343.11,241.71 L342.95,241.48 L342.79,241.25 L342.63,241.01 L342.47,240.78 L342.31,240.55 L342.14,240.32 L341.98,240.09 L341.82,239.87 L341.65,239.64 L341.49,239.41 L341.33,239.18 L341.16,238.95 L340.99,238.73 L340.83,238.50 L340.66,238.28 L340.49,238.05 L340.32,237.83 L340.15,237.60 L339.98,237.38 L339.81,237.16 L339.64,236.93 L339.47,236.71 L339.29,236.49 L339.12,236.27 L338.94,236.05 L338.77,235.83 L338.59,235.61 L338.42,235.39 L338.24,235.17 L338.06,234.95 L337.89,234.73 L337.71,234.52 L337.53,234.30 L337.35,234.08 L337.17,233.87 L336.99,233.65 L336.81,233.44 L336.62,233.22 L336.44,233.01 L336.26,232.80 L336.07,232.58 L335.89,232.37 L335.70,232.16 L335.52,231.95 L335.33,231.74 L335.14,231.53 L334.96,231.32 L334.77,231.11 L334.58,230.90 L334.39,230.69 L334.20,230.49 L334.01,230.28 L333.82,230.07 L333.63,229.87 L333.44,229.66 L333.24,229.46 L333.05,229.26 L332.85,229.05 L332.66,228.85 L332.46,228.65 L332.27,228.44 L332.07,228.24 L331.88,228.04 L331.68,227.84 L331.48,227.64 L331.28,227.44 L331.08,227.25 L330.88,227.05 L330.68,226.85 L330.48,226.65 L330.28,226.46 L330.08,226.26 L329.88,226.07 L329.67,225.87 L329.47,225.68 L329.26,225.49 L329.06,225.29 L328.85,225.10 L328.65,224.91 L328.44,224.72 L328.23,224.53 L328.03,224.34 L327.82,224.15 L327.61,223.96 L327.40,223.77 L327.19,223.59 L326.98,223.40 L326.77,223.21 L326.56,223.03 L326.35,222.84 L326.14,222.66 L325.92,222.47 L325.71,222.29 L325.50,222.11 L325.28,221.93 L325.07,221.75 L324.85,221.57 L324.64,221.38 L324.42,221.21 L324.20,221.03 L323.98,220.85 L323.77,220.67 L323.55,220.49 L323.33,220.32 L323.11,220.14 L322.89,219.97 L322.67,219.79 L322.45,219.62 L322.23,219.44 L322.00,219.27 L321.78,219.10 L321.56,218.93 L321.34,218.76 L321.11,218.59 L320.89,218.42 L320.66,218.25 L320.44,218.08 L320.21,217.91 L319.99,217.75 L319.76,217.58 L319.53,217.42 L319.30,217.25 L319.08,217.09 L318.85,216.92 L318.62,216.76 L318.39,216.60 L318.16,216.44 L317.93,216.27 L317.70,216.11 L317.47,215.95 L317.23,215.80 L317.00,215.64 L316.77,215.48 L316.54,215.32 L316.30,215.17 L316.07,215.01 L315.83,214.86 L315.60,214.70 L315.36,214.55 L315.13,214.39 L314.89,214.24 L314.65,214.09 L314.42,213.94 L314.18,213.79 L313.94,213.64 L313.70,213.49 L313.46,213.34 L313.23,213.19 L312.99,213.05 L312.75,212.90 L312.50,212.75 L312.26,212.61 L312.02,212.47 L311.78,212.32 L311.54,212.18 L311.30,212.04 L311.05,211.90 L310.81,211.75 L310.57,211.61 L310.32,211.48 L310.08,211.34 L309.83,211.20 L309.59,211.06 L309.34,210.92 L309.10,210.79 L308.85,210.65 L308.60,210.52 L308.35,210.38 L308.11,210.25 L307.86,210.12 L307.61,209.99 L307.36,209.86 L307.11,209.73 L306.86,209.60 L306.61,209.47 L306.36,209.34 L306.11,209.21 L305.86,209.09 L305.61,208.96 L305.36,208.83 L305.11,208.71 L304.85,208.59 L304.60,208.46 L304.35,208.34 L304.09,208.22 L303.84,208.10 L303.59,207.98 L303.33,207.86 L303.08,207.74 L302.82,207.62 L302.57,207.50 L302.31,207.39 L302.05,207.27 L301.80,207.16 L301.54,207.04 L301.28,206.93 L301.03,206.81 L300.77,206.70 L300.51,206.59 L300.25,206.48 L299.99,206.37 L299.73,206.26 L299.48,206.15 L299.22,206.04 L298.96,205.94 L298.70,205.83 L298.44,205.73 L298.17,205.62 L297.91,205.52 L297.65,205.41 L297.39,205.31 L297.13,205.21 L296.87,205.11 L296.60,205.01 L296.34,204.91 L296.08,204.81 L295.81,204.71 L295.55,204.61 L295.29,204.52 L295.02,204.42 L294.76,204.32 L294.49,204.23 L294.23,204.14 L293.96,204.04 L293.70,203.95 L293.43,203.86Z" layer="Default"/>
<path spline_1deg="" d=" M268.25,187.66 L435.36,186.07 L435.36,10.54 L217.48,10.54Z" layer="Layer 01"/>
<path spline_1deg="" d=" M447.87,257.72 L224.14,272.00 L300.30,218.05Z" layer="Layer 01"/>
<path spline_1deg="" d=" M216.21,229.16 L258.24,90.26 L139.13,7.36 L23.48,95.03 L71.12,232.11Z" layer="Layer 02"/>
<path spline_1deg="" d=" M-198.91,-366.45 L-198.91,762.59 L1573.75,762.59 L1573.75,-366.45Z" layer="Layer 02"/>
    </svg>